<svg width="512" height="512" viewBox="0 0 512 512" fill="none" xmlns="http://www.w3.org/2000/svg">
<circle cx="256" cy="256" r="256" fill="#3A7DCE"/>
<path d="M135.288 244.952C132.516 239.393 132.516 239.393 132.516 233.835C131.137 233.835 130.878 234.095 130.072 233.883C129.273 233.663 128.973 239.003 126.379 237.961C125.942 237.44 128.235 233.574 125.75 231.97C124.952 231.449 125.942 228.283 125.6 226.892C125.6 226.892 122.439 228.543 120.063 222.724C118.896 221.203 117.298 224.116 117.298 224.116C117.298 224.116 117.988 225.891 116.732 226.329C114.964 225.02 113.66 225.706 111.413 223.917C109.167 222.128 111.891 220.072 107.611 218.557C110.376 211.607 110.376 212.998 117.298 210.223C113.141 207.44 113.141 207.44 110.376 203.273C106.225 201.881 104.839 200.497 100.688 197.714C95.158 190.771 92.3862 176.878 92.3862 167.152C95.8885 163.896 100.688 178.269 107.611 182.436L117.298 186.604C122.828 189.38 124.214 192.162 128.365 194.938L140.818 199.105C146.355 203.273 149.12 208.831 153.271 210.223C157.77 210.223 158.637 207.618 160.077 207.46C168.215 207.042 172.366 205.987 173.984 203.533C175.629 201.58 179.569 204.664 190.635 200.497L189.25 194.938C189.25 194.938 192.192 192.505 196.172 193.547C196.063 191.011 195.804 184.239 199.722 181.182C197.34 178.674 198.937 176.878 198.937 176.878C198.937 176.878 201.142 174.753 201.402 173.622C200.234 167.502 202.412 167.406 202.904 165.603C203.395 163.807 201.02 164.424 201.689 161.936C202.358 159.455 206.365 158.865 206.905 156.823C207.444 154.774 205.758 153.752 205.86 153.259C206.72 151.312 205.99 146.706 205.86 144.927C213.295 142.93 215.718 136.852 218.313 139.37C219.699 131.035 221.078 128.256 229.379 128.256C230.547 125.695 226.355 123.524 228 122.699C230.765 122.352 232.882 122.526 236.131 126.737C237.156 128.071 237.34 124.783 238.378 124.436C239.415 124.088 241.9 124.083 242.269 122.438C242.658 120.746 243.218 118.532 244.604 115.753C245.771 113.495 246.679 116.621 247.717 121.049C253.554 121.266 266.744 122.569 272.281 124.088C276.432 125.174 279.197 123.003 283.177 122.569C286.113 125.521 288.885 123.307 290.441 129.602C292.64 132.998 296.238 129.906 297.016 130.905C301.638 143.711 317.552 135.072 318.767 135.289C320.795 135.289 323.28 141.016 324.877 140.873C327.478 140.434 326.741 138.654 329.015 139.37C328.407 144.189 333.466 149.746 333.466 153.348C333.466 153.348 334.702 153.958 335.842 152.889C336.982 151.82 338.026 149.072 339.044 149.138C341.467 149.485 342.45 149.798 345.236 150.284C352.746 152.861 356.562 153.444 359.477 154.76C360.836 157.248 362.147 158.523 364.898 158.064C367.165 159.592 365.512 161.6 366.851 161.73C369.622 160.339 370.524 158.817 373.295 160.209C376.06 161.6 378.832 164.376 380.211 167.152C380.211 168.543 378.832 174.102 380.211 182.436C380.908 185.212 381.242 187.419 384.212 192.183C383.427 197.077 387.953 205.315 387.953 207.399C387.953 210.175 385.748 211.607 384.362 214.39C389.899 218.557 384.362 225.5 381.597 229.667C402.352 233.835 392.671 242.169 409.274 238.002C405.123 247.728 406.591 246.946 410.742 256.672C402.44 262.231 410.571 263.924 405.035 270.867C404.686 271.305 408.319 276.905 413.425 276.905C412.039 288.016 407.888 283.848 409.274 300.517C398.378 300.305 402.789 312.978 395.436 311.634C395.866 319.578 399.628 320.271 398.201 328.303C392.671 329.695 392.671 329.695 389.899 333.862L385.748 332.471C384.362 339.421 381.597 340.805 385.748 347.755C385.748 347.755 380.389 347.926 378.832 347.755C378.702 350.14 381.208 350.791 381.597 353.314C381.379 354.308 373.725 358.694 367.759 358.865C366.202 362.299 371.909 365.946 371.561 367.68C365.075 368.941 362.222 376.926 362.222 376.926C362.222 376.926 365.553 378.276 364.994 379.708C363.219 378.399 362.222 378.317 359.457 378.317C358.071 378.667 354.698 378.235 351.469 383.711C347.919 384.883 346.239 384.458 343.55 388.036C342.355 384.63 340.641 388.07 338.545 389.386C336.449 390.709 333.63 393.999 333.247 393.862C333.336 392.902 334.551 389.427 334.551 389.427L327.629 390.819C327.629 390.819 327.321 390.846 326.775 390.908C326.236 390.956 326.379 386.85 325.068 387.001C323.758 387.152 320.003 392.169 318.726 392.327C317.449 392.478 317.047 390.73 315.947 390.881C314.841 391.031 312.698 396.172 311.919 396.309C311.141 396.446 308.055 393.183 305.406 393.643C291.779 398.461 289.622 384.136 287.499 392.21C284.645 390.689 285.143 391.573 282.242 392.334C280.392 392.813 280.221 389.88 278.576 389.921C275.285 390.017 275.456 393.142 273.66 392.21C272.192 385.699 263.324 386.871 262.464 384.088C261.761 381.196 266.301 381.21 267.775 379.242C268.895 376.412 266.601 375.336 271.161 372.601C277.101 368.564 273.688 367.042 274.725 364.013C276.589 359.633 276.603 358.564 275.046 354.698C275.046 354.698 270.417 342.197 269.509 342.197C266.744 341.415 266.744 346.796 262.675 348.276C254.374 351.052 239.716 341.244 237.162 341.244C234.827 341.285 224.013 343.814 224.423 338.399C222.812 343.663 216.865 339.633 216.497 339.633C210.96 339.633 213.076 343.931 209.362 343.759C207.669 343.197 190.635 342.197 190.635 342.197V344.972L179.569 339.421L169.881 336.638C161.579 333.862 165.73 326.912 151.891 331.079V322.745H144.969C147.741 306.076 144.969 314.41 143.59 299.133L138.053 300.517C132.516 293.012 145.747 294.445 133.902 289.407C133.902 289.407 134.114 281.114 131.137 283.848C130.529 284.198 132.516 288.016 132.516 288.016C121.449 286.624 118.678 283.848 118.678 272.738C118.678 272.738 127.805 274.04 126.979 272.738C125.682 270.654 123.996 257.104 124.303 256.192C124.173 254.369 132.776 249.77 131.11 245.384C132.175 244.993 135.288 244.952 135.288 244.952" fill="white"/>
</svg>
